<svg xmlns="http://www.w3.org/2000/svg" width="1200" height="360" viewBox="0 0 1200 360" role="img" aria-label="Speeched banner">
  <defs>
    <linearGradient id="bg" x1="0" y1="0" x2="1" y2="1">
      <stop offset="0" stop-color="#07111f"/>
      <stop offset="1" stop-color="#0d3550"/>
    </linearGradient>
    <linearGradient id="line" x1="0" y1="0" x2="1" y2="0">
      <stop offset="0" stop-color="#38bdf8"/>
      <stop offset="1" stop-color="#22c55e"/>
    </linearGradient>
  </defs>

  <rect width="1200" height="360" rx="28" fill="url(#bg)"/>
  <circle cx="1010" cy="82" r="168" fill="#38bdf8" opacity="0.08"/>
  <circle cx="865" cy="332" r="180" fill="#22c55e" opacity="0.06"/>

  <g transform="translate(86 78)">
    <text x="0" y="64" fill="#f8fafc" font-family="Inter, Arial, sans-serif" font-size="72" font-weight="900">Speeched</text>
    <text x="4" y="112" fill="#bae6fd" font-family="Inter, Arial, sans-serif" font-size="28" font-weight="800">Private voice messages into clean text</text>
    <text x="4" y="154" fill="#cbd5e1" font-family="Inter, Arial, sans-serif" font-size="19">Local-first transcription bot powered by faster-whisper, llama.cpp, SQLite, and Docker.</text>

    <g transform="translate(4 206)">
      <rect x="0" y="0" width="128" height="40" rx="20" fill="#123352" stroke="#38bdf8" stroke-opacity="0.45"/>
      <text x="64" y="26" text-anchor="middle" fill="#dbeafe" font-family="Inter, Arial, sans-serif" font-size="14" font-weight="800">Whisper</text>
      <rect x="148" y="0" width="116" height="40" rx="20" fill="#123352" stroke="#38bdf8" stroke-opacity="0.45"/>
      <text x="206" y="26" text-anchor="middle" fill="#dbeafe" font-family="Inter, Arial, sans-serif" font-size="14" font-weight="800">Qwen</text>
      <rect x="284" y="0" width="118" height="40" rx="20" fill="#123352" stroke="#38bdf8" stroke-opacity="0.45"/>
      <text x="343" y="26" text-anchor="middle" fill="#dbeafe" font-family="Inter, Arial, sans-serif" font-size="14" font-weight="800">SQLite</text>
    </g>
  </g>

  <g transform="translate(770 132)" stroke="url(#line)" stroke-width="10" stroke-linecap="round">
    <path d="M0 74 L0 48"/>
    <path d="M34 74 L34 22"/>
    <path d="M68 74 L68 96"/>
    <path d="M102 74 L102 10"/>
    <path d="M136 74 L136 112"/>
    <path d="M170 74 L170 34"/>
    <path d="M204 74 L204 118"/>
    <path d="M238 74 L238 18"/>
    <path d="M272 74 L272 98"/>
    <path d="M306 74 L306 42"/>
  </g>
</svg>
