<svg xmlns="http://www.w3.org/2000/svg" width="1280" height="520" viewBox="0 0 1280 520" role="img" aria-label="Speeched local Telegram voice transcription bot banner">
  <defs>
    <linearGradient id="bg" x1="0" y1="0" x2="1" y2="1">
      <stop offset="0" stop-color="#09111f"/>
      <stop offset="0.58" stop-color="#0f2438"/>
      <stop offset="1" stop-color="#123b4f"/>
    </linearGradient>
    <linearGradient id="accent" x1="0" y1="0" x2="1" y2="1">
      <stop offset="0" stop-color="#2aabee"/>
      <stop offset="1" stop-color="#7dd3fc"/>
    </linearGradient>
    <linearGradient id="green" x1="0" y1="0" x2="1" y2="1">
      <stop offset="0" stop-color="#1f8a70"/>
      <stop offset="1" stop-color="#4ade80"/>
    </linearGradient>
    <filter id="soft-shadow" x="-20%" y="-20%" width="140%" height="140%">
      <feDropShadow dx="0" dy="22" stdDeviation="24" flood-color="#020617" flood-opacity="0.35"/>
    </filter>
  </defs>

  <rect width="1280" height="520" rx="28" fill="url(#bg)"/>
  <path d="M0 391 C142 344 255 371 388 332 C535 288 634 207 779 224 C930 242 982 343 1127 315 C1194 302 1239 277 1280 244 L1280 520 L0 520 Z" fill="#0b1728" opacity="0.62"/>
  <circle cx="1088" cy="96" r="176" fill="#38bdf8" opacity="0.08"/>
  <circle cx="1018" cy="418" r="152" fill="#22c55e" opacity="0.07"/>

  <g transform="translate(82 86)">
    <rect x="0" y="0" width="520" height="348" rx="24" fill="#f8fafc" filter="url(#soft-shadow)"/>
    <rect x="0" y="0" width="520" height="74" rx="24" fill="url(#accent)"/>
    <rect x="0" y="50" width="520" height="24" fill="#38bdf8"/>
    <circle cx="44" cy="37" r="20" fill="#ffffff" opacity="0.95"/>
    <path d="M34 38 L53 28 C56 27 58 29 57 32 L51 50 C50 53 47 53 45 51 L40 46 L36 50 C35 51 33 50 34 48 L36 43 L48 33 L38 40 C36 41 34 40 34 38 Z" fill="#229ed9"/>
    <text x="82" y="33" fill="#ffffff" font-family="Inter, Arial, sans-serif" font-size="22" font-weight="800">Speeched</text>
    <text x="82" y="56" fill="#dff6ff" font-family="Inter, Arial, sans-serif" font-size="14" font-weight="600">Telegram voice transcription</text>

    <rect x="34" y="112" width="286" height="66" rx="18" fill="#e2e8f0"/>
    <text x="58" y="139" fill="#334155" font-family="Inter, Arial, sans-serif" font-size="15" font-weight="700">Voice message</text>
    <g transform="translate(58 154)" stroke="#229ed9" stroke-width="4" stroke-linecap="round">
      <path d="M0 12 L0 7"/>
      <path d="M14 12 L14 2"/>
      <path d="M28 12 L28 16"/>
      <path d="M42 12 L42 4"/>
      <path d="M56 12 L56 19"/>
      <path d="M70 12 L70 1"/>
      <path d="M84 12 L84 15"/>
      <path d="M98 12 L98 6"/>
      <path d="M112 12 L112 18"/>
      <path d="M126 12 L126 3"/>
      <path d="M140 12 L140 14"/>
    </g>
    <text x="250" y="164" fill="#64748b" font-family="Inter, Arial, sans-serif" font-size="13" font-weight="700">00:18</text>

    <rect x="162" y="210" width="324" height="94" rx="18" fill="#dcfce7"/>
    <text x="188" y="239" fill="#14532d" font-family="Inter, Arial, sans-serif" font-size="15" font-weight="800">Transcription ready</text>
    <text x="188" y="266" fill="#166534" font-family="Inter, Arial, sans-serif" font-size="15">Local Whisper recognition</text>
    <text x="188" y="288" fill="#166534" font-family="Inter, Arial, sans-serif" font-size="15">Qwen cleanup, no cloud LLM</text>
  </g>

  <g transform="translate(676 98)">
    <text x="0" y="42" fill="#f8fafc" font-family="Inter, Arial, sans-serif" font-size="58" font-weight="900">Speeched</text>
    <text x="2" y="86" fill="#bae6fd" font-family="Inter, Arial, sans-serif" font-size="24" font-weight="700">Private voice messages into clean text</text>
    <text x="2" y="125" fill="#cbd5e1" font-family="Inter, Arial, sans-serif" font-size="17">A local-first Telegram bot powered by faster-whisper, llama.cpp,</text>
    <text x="2" y="150" fill="#cbd5e1" font-family="Inter, Arial, sans-serif" font-size="17">SQLite, Docker, and resilient background processing.</text>

    <g transform="translate(0 198)">
      <rect x="0" y="0" width="138" height="44" rx="12" fill="#1e3a5f" stroke="#38bdf8" stroke-opacity="0.45"/>
      <text x="26" y="28" fill="#e0f2fe" font-family="Inter, Arial, sans-serif" font-size="15" font-weight="800">Telegram</text>
      <path d="M146 22 H184" stroke="#67e8f9" stroke-width="3" stroke-linecap="round"/>
      <path d="M178 15 L185 22 L178 29" fill="none" stroke="#67e8f9" stroke-width="3" stroke-linecap="round" stroke-linejoin="round"/>

      <rect x="196" y="0" width="120" height="44" rx="12" fill="#172554" stroke="#60a5fa" stroke-opacity="0.5"/>
      <text x="228" y="28" fill="#dbeafe" font-family="Inter, Arial, sans-serif" font-size="15" font-weight="800">Whisper</text>
      <path d="M324 22 H362" stroke="#67e8f9" stroke-width="3" stroke-linecap="round"/>
      <path d="M356 15 L363 22 L356 29" fill="none" stroke="#67e8f9" stroke-width="3" stroke-linecap="round" stroke-linejoin="round"/>

      <rect x="374" y="0" width="94" height="44" rx="12" fill="#14532d" stroke="#4ade80" stroke-opacity="0.5"/>
      <text x="400" y="28" fill="#dcfce7" font-family="Inter, Arial, sans-serif" font-size="15" font-weight="800">Qwen</text>
      <path d="M476 22 H514" stroke="#67e8f9" stroke-width="3" stroke-linecap="round"/>
      <path d="M508 15 L515 22 L508 29" fill="none" stroke="#67e8f9" stroke-width="3" stroke-linecap="round" stroke-linejoin="round"/>

      <rect x="526" y="0" width="96" height="44" rx="12" fill="#312e81" stroke="#a78bfa" stroke-opacity="0.5"/>
      <text x="552" y="28" fill="#ede9fe" font-family="Inter, Arial, sans-serif" font-size="15" font-weight="800">SQLite</text>
    </g>

    <g transform="translate(0 290)">
      <rect x="0" y="0" width="176" height="44" rx="22" fill="url(#green)" opacity="0.95"/>
      <text x="24" y="28" fill="#052e16" font-family="Inter, Arial, sans-serif" font-size="15" font-weight="900">CPU friendly</text>
      <rect x="194" y="0" width="180" height="44" rx="22" fill="#0f2942" stroke="#38bdf8" stroke-opacity="0.38"/>
      <text x="218" y="28" fill="#dbeafe" font-family="Inter, Arial, sans-serif" font-size="15" font-weight="800">Group controls</text>
      <rect x="392" y="0" width="174" height="44" rx="22" fill="#0f2942" stroke="#38bdf8" stroke-opacity="0.38"/>
      <text x="416" y="28" fill="#dbeafe" font-family="Inter, Arial, sans-serif" font-size="15" font-weight="800">Docker ready</text>
    </g>
  </g>
</svg>
