<svg xmlns="http://www.w3.org/2000/svg" width="1200" height="420" viewBox="0 0 1200 420" role="img" aria-label="Speeched Telegram voice transcription bot banner">
  <defs>
    <linearGradient id="background" x1="0" y1="0" x2="1" y2="1">
      <stop offset="0" stop-color="#07111f"/>
      <stop offset="0.55" stop-color="#0d1f33"/>
      <stop offset="1" stop-color="#0e3a52"/>
    </linearGradient>
    <linearGradient id="card" x1="0" y1="0" x2="1" y2="1">
      <stop offset="0" stop-color="#0f2740"/>
      <stop offset="1" stop-color="#123f59"/>
    </linearGradient>
    <filter id="shadow" x="-20%" y="-20%" width="140%" height="140%">
      <feDropShadow dx="0" dy="20" stdDeviation="22" flood-color="#020617" flood-opacity="0.32"/>
    </filter>
  </defs>

  <rect width="1200" height="420" rx="24" fill="url(#background)"/>
  <path d="M0 323 C154 285 300 308 452 255 C617 198 762 152 930 191 C1046 218 1117 285 1200 252 L1200 420 L0 420 Z" fill="#081526" opacity="0.64"/>
  <circle cx="1038" cy="72" r="172" fill="#38bdf8" opacity="0.07"/>
  <circle cx="846" cy="382" r="172" fill="#22c55e" opacity="0.06"/>

  <g transform="translate(72 68)" filter="url(#shadow)">
    <rect width="342" height="284" rx="22" fill="url(#card)" stroke="#245b78" stroke-width="1"/>
    <circle cx="171" cy="94" r="54" fill="#2AABEE"/>
    <g transform="translate(129 48) scale(0.17)">
      <path fill="#ffffff" d="M446.7 98.6 379.1 417.4c-5.1 22.5-18.4 28.1-37.3 17.5l-103-75.9-49.7 47.8c-5.5 5.5-10.1 10.1-20.7 10.1l7.4-104.9L366.7 139.5c8.3-7.4-1.8-11.5-12.9-4.1L117.8 284 16.2 252.2c-22.1-6.9-22.5-22.1 4.6-32.7L418.2 66.4c18.4-6.9 34.5 4.1 28.5 32.2z"/>
    </g>
    <text x="171" y="178" text-anchor="middle" fill="#f8fafc" font-family="Inter, Arial, sans-serif" font-size="31" font-weight="900">Speeched</text>
    <text x="171" y="207" text-anchor="middle" fill="#bae6fd" font-family="Inter, Arial, sans-serif" font-size="16" font-weight="700">Telegram voice transcription</text>

    <g transform="translate(62 238)" stroke="#7dd3fc" stroke-width="5" stroke-linecap="round">
      <path d="M0 14 L0 8"/>
      <path d="M18 14 L18 2"/>
      <path d="M36 14 L36 22"/>
      <path d="M54 14 L54 5"/>
      <path d="M72 14 L72 27"/>
      <path d="M90 14 L90 0"/>
      <path d="M108 14 L108 20"/>
      <path d="M126 14 L126 7"/>
      <path d="M144 14 L144 25"/>
      <path d="M162 14 L162 3"/>
      <path d="M180 14 L180 18"/>
      <path d="M198 14 L198 9"/>
    </g>
  </g>

  <g transform="translate(478 82)">
    <text x="0" y="56" fill="#f8fafc" font-family="Inter, Arial, sans-serif" font-size="62" font-weight="900">Speeched</text>
    <text x="2" y="102" fill="#bae6fd" font-family="Inter, Arial, sans-serif" font-size="25" font-weight="800">Private voice messages into clean text</text>
    <text x="2" y="142" fill="#cbd5e1" font-family="Inter, Arial, sans-serif" font-size="18">Local-first Telegram bot with faster-whisper, llama.cpp, SQLite,</text>
    <text x="2" y="169" fill="#cbd5e1" font-family="Inter, Arial, sans-serif" font-size="18">Docker deployment, queues, retries, and persistent settings.</text>

    <g transform="translate(2 222)">
      <rect x="0" y="0" width="138" height="46" rx="14" fill="#163b5c" stroke="#38bdf8" stroke-opacity="0.55"/>
      <text x="69" y="30" text-anchor="middle" fill="#e0f2fe" font-family="Inter, Arial, sans-serif" font-size="15" font-weight="900">Telegram</text>

      <path d="M150 23 H188" stroke="#67e8f9" stroke-width="3.5" stroke-linecap="round"/>
      <path d="M181 15 L189 23 L181 31" fill="none" stroke="#67e8f9" stroke-width="3.5" stroke-linecap="round" stroke-linejoin="round"/>

      <rect x="202" y="0" width="124" height="46" rx="14" fill="#182861" stroke="#60a5fa" stroke-opacity="0.55"/>
      <text x="264" y="30" text-anchor="middle" fill="#dbeafe" font-family="Inter, Arial, sans-serif" font-size="15" font-weight="900">Whisper</text>

      <path d="M338 23 H376" stroke="#67e8f9" stroke-width="3.5" stroke-linecap="round"/>
      <path d="M369 15 L377 23 L369 31" fill="none" stroke="#67e8f9" stroke-width="3.5" stroke-linecap="round" stroke-linejoin="round"/>

      <rect x="390" y="0" width="104" height="46" rx="14" fill="#14532d" stroke="#4ade80" stroke-opacity="0.6"/>
      <text x="442" y="30" text-anchor="middle" fill="#dcfce7" font-family="Inter, Arial, sans-serif" font-size="15" font-weight="900">Qwen</text>

      <path d="M506 23 H544" stroke="#67e8f9" stroke-width="3.5" stroke-linecap="round"/>
      <path d="M537 15 L545 23 L537 31" fill="none" stroke="#67e8f9" stroke-width="3.5" stroke-linecap="round" stroke-linejoin="round"/>

      <rect x="558" y="0" width="108" height="46" rx="14" fill="#312e81" stroke="#a78bfa" stroke-opacity="0.62"/>
      <text x="612" y="30" text-anchor="middle" fill="#ede9fe" font-family="Inter, Arial, sans-serif" font-size="15" font-weight="900">SQLite</text>
    </g>

    <g transform="translate(2 305)">
      <rect x="0" y="0" width="146" height="40" rx="20" fill="#22c55e"/>
      <text x="73" y="26" text-anchor="middle" fill="#052e16" font-family="Inter, Arial, sans-serif" font-size="14" font-weight="900">CPU friendly</text>
      <rect x="166" y="0" width="158" height="40" rx="20" fill="#0f2942" stroke="#38bdf8" stroke-opacity="0.45"/>
      <text x="245" y="26" text-anchor="middle" fill="#dbeafe" font-family="Inter, Arial, sans-serif" font-size="14" font-weight="800">Group controls</text>
      <rect x="344" y="0" width="146" height="40" rx="20" fill="#0f2942" stroke="#38bdf8" stroke-opacity="0.45"/>
      <text x="417" y="26" text-anchor="middle" fill="#dbeafe" font-family="Inter, Arial, sans-serif" font-size="14" font-weight="800">Docker ready</text>
    </g>
  </g>
</svg>
